<?xml version="1.0" encoding="UTF-8"?>
<svg xmlns="http://www.w3.org/2000/svg" width="512" height="512" viewBox="0 0 128 128"><g><path d="M6.368,120.21H121.631a4.123,4.123,0,0,0,4.119-4.118V96.96a4.318,4.318,0,0,0-2.433-3.906,14.214,14.214,0,0,0-2.4-.876V82.44a22.1,22.1,0,0,1,4.227-13.009,3.091,3.091,0,0,0-2.486-4.92H89.989a4.209,4.209,0,0,0-3.384,1.729l-4.659,6.4a.682.682,0,0,1-.556.281H77.736V64.4a2.89,2.89,0,0,0-2.887-2.887H54.3A2.89,2.89,0,0,0,51.413,64.4V72.92H47.759a.7.7,0,0,1-.587-.327L43.1,65.778V54a3.326,3.326,0,0,0-3.323-3.322H20.894V34.827a3.326,3.326,0,0,0-3.323-3.322h-12A3.325,3.325,0,0,0,2.25,34.827v81.265A4.122,4.122,0,0,0,6.368,120.21ZM5.75,42.328H17.394v3.206H5.75Zm11.644,6.706V64.511H5.75V49.034ZM122.25,96.96v19.132a.619.619,0,0,1-.619.618H6.368a.618.618,0,0,1-.618-.618V96.96a.844.844,0,0,1,.424-.736,10.661,10.661,0,0,1,8.991.008c1.7.809,8.369,5.8,16.551.616a10.737,10.737,0,0,1,11.333.054,14.065,14.065,0,0,0,15.235,0,10.813,10.813,0,0,1,11.431,0,14.064,14.064,0,0,0,15.236,0,10.74,10.74,0,0,1,11.429,0,14.041,14.041,0,0,0,15.237,0,10.59,10.59,0,0,1,10.206-.683A.818.818,0,0,1,122.25,96.96ZM74.236,72.92H66.325V65.009h7.911ZM54.913,65.009h7.912V72.92H54.913ZM47.759,76.42H81.39A4.2,4.2,0,0,0,84.774,74.7l4.659-6.4a.694.694,0,0,1,.556-.292h31.879a25.577,25.577,0,0,0-4.449,14.429V91.7a14.1,14.1,0,0,0-7.7,2.257,10.708,10.708,0,0,1-11.436,0,14.014,14.014,0,0,0-15.233,0,10.683,10.683,0,0,1-11.432,0,14.025,14.025,0,0,0-15.238,0,10.682,10.682,0,0,1-11.433,0,14.012,14.012,0,0,0-15.228,0,10.7,10.7,0,0,1-11.382.033c-.017-.011-.036-.018-.054-.03A13.919,13.919,0,0,0,5.75,92.608v-24.6H40.356l3.814,6.383A4.213,4.213,0,0,0,47.759,76.42ZM39.6,54.181v10.33H20.894V54.181ZM17.394,35.005v3.823H5.75V35.005Z"/><path d="M101.7,83.042a5.986,5.986,0,1,0-5.986-5.986A5.993,5.993,0,0,0,101.7,83.042Zm0-8.471a2.486,2.486,0,1,1-2.486,2.485A2.488,2.488,0,0,1,101.7,74.571Z"/><path d="M34.29,71.071a5.986,5.986,0,1,0,5.985,5.985A5.992,5.992,0,0,0,34.29,71.071Zm0,8.471a2.486,2.486,0,1,1,2.485-2.486A2.489,2.489,0,0,1,34.29,79.542Z"/><path d="M16.452,71.071a5.986,5.986,0,1,0,5.985,5.985A5.992,5.992,0,0,0,16.452,71.071Zm0,8.471a2.486,2.486,0,1,1,2.485-2.486A2.488,2.488,0,0,1,16.452,79.542Z"/><path d="M49.958,86.563H79.19a1.75,1.75,0,0,0,0-3.5H49.958a1.75,1.75,0,0,0,0,3.5Z"/><path d="M19.264,24.609a7.09,7.09,0,0,0,4.891-2.053,7.6,7.6,0,0,0,3.081.643,7.7,7.7,0,0,0,0-15.409,7.628,7.628,0,0,0-5.283,2.095,7.69,7.69,0,0,0-5.143-.436,7.542,7.542,0,0,0-5.734,7.436,6.046,6.046,0,1,0,8.188,7.724Zm-8.158-2.25a2.535,2.535,0,0,1,1.55-2.346,3.082,3.082,0,0,0,1.923-2.949l0-.147a4.1,4.1,0,0,1,3.091-4.075,4.559,4.559,0,0,1,1.119-.142,4.112,4.112,0,0,1,1.863.441,3.081,3.081,0,0,0,3.594-.6,4.153,4.153,0,0,1,2.993-1.252,4.2,4.2,0,0,1,0,8.409,4.125,4.125,0,0,1-1.848-.429,3.018,3.018,0,0,0-3.627.722h0a3.668,3.668,0,0,1-2.822,1.123,3,3,0,0,0-2.866,2.033,2.547,2.547,0,0,1-4.966-.789Z"/></g></svg>
