<?xml version="1.0"?>
<svg xmlns="http://www.w3.org/2000/svg" width="512" height="512" viewBox="0 0 128 128"><g><path d="M64,47.685A6.186,6.186,0,1,0,57.814,41.5,6.192,6.192,0,0,0,64,47.685Zm0-8.871A2.686,2.686,0,1,1,61.314,41.5,2.689,2.689,0,0,1,64,38.814Z"/><path d="M102.25,56.038h12a1.752,1.752,0,0,0,1.121-.406l3.372-2.812h0A25.682,25.682,0,0,0,128,33.044V25.75A25.779,25.779,0,0,0,102.25,0a1.75,1.75,0,0,0-1.75,1.75V25.766L74.806,32.651l-4.554-4.632A1.747,1.747,0,0,0,69,27.5H59a1.747,1.747,0,0,0-1.248.523l-7.871,8.006a1.753,1.753,0,0,0-.5,1.227v2.213L1.3,52.348A1.75,1.75,0,0,0,0,54.038V62.32a1.752,1.752,0,0,0,2.2,1.691l4.391-1.177v42.231H4.75A4.756,4.756,0,0,0,0,109.815V126.25A1.75,1.75,0,0,0,1.75,128h124.5a1.75,1.75,0,0,0,1.75-1.75v-9a1.75,1.75,0,0,0-1.75-1.75H99.691L78.625,53.464V43.533L100.5,37.672V54.288A1.75,1.75,0,0,0,102.25,56.038ZM104,3.568A22.28,22.28,0,0,1,124.5,25.75v7.294a22.188,22.188,0,0,1-8,17.087l-2.885,2.407H104V3.568Zm-51.125,34.4L59.729,31H68.27l6.855,6.972V52H52.875V37.968ZM85.987,115.5H42.013l4.658-13.719H81.329Zm-33.608-60H58.69L46.477,91.471h0l-2.717,8v0L38.316,115.5H32.005ZM73.837,79.722H54.163l1.528-4.5H72.309ZM47.86,98.284l1.528-4.5H78.612l1.528,4.5Zm2.716-8,2.4-7.062H75.026l2.4,7.062Zm6.3-18.562L62.387,55.5h3.226L71.12,71.722ZM3.5,55.381,49.375,43.089v4.659L3.5,60.04ZM10.094,61.9,49.375,51.371v2.093L28.308,115.5H16.687v-5.688a4.755,4.755,0,0,0-4.75-4.75H10.094ZM3.5,109.815a1.251,1.251,0,0,1,1.25-1.25h7.187a1.251,1.251,0,0,1,1.25,1.25V115.5H3.5Zm121,14.685H3.5V119h121Zm-34.816-9L84.241,99.474v0l-2.717-8h0L69.31,55.5h6.311L96,115.5ZM78.625,39.91V37.252a1.739,1.739,0,0,0-.033-.339,1.757,1.757,0,0,0-.469-.888l-.5-.506L100.5,29.39v4.658Z"/><path d="M110.25,48.038h1.1a1.749,1.749,0,0,0,1.122-.407l1.145-.955A17.706,17.706,0,0,0,120,33.044V25.75a17.823,17.823,0,0,0-8.872-15.367A1.75,1.75,0,0,0,108.5,11.9v34.39A1.75,1.75,0,0,0,110.25,48.038ZM112,15.37a14.3,14.3,0,0,1,4.5,10.38v7.294A14.212,14.212,0,0,1,112,43.438Z"/></g></svg>
