<svg id="Layer_1" enable-background="new 0 0 510 510" height="512" viewBox="0 0 510 510" width="512" xmlns="http://www.w3.org/2000/svg"><g><path d="m405 170.109v-95.109h-60v-75h-135v75h-30v-75h-30v60h-60v-60h-30v75h-60v435h510v-294.891zm-165-140.109h75v45h-75zm-90 390h-60v-30h60zm0-60h-60v-30h60zm0-60h-60v-30h60zm0-60h-60v-30h60zm0-60h-60v-30h60zm-60 270h60v30h-60zm60-360v30h-60v-30zm-120 15h30v375h-30zm345 375h-195v-375h195zm105 0h-75v-277.252l75 32.143z"/><path d="m277.5 171.015c-16.469 20.571-52.5 64.776-52.5 91.485 0 28.948 23.551 52.5 52.5 52.5s52.5-23.552 52.5-52.5c0-26.707-36.245-71.18-52.5-91.485zm0 113.985c-12.407 0-22.5-10.094-22.5-22.5 0-9.352 17.105-34.748 22.5-42.4 5.393 7.65 22.5 33.049 22.5 42.4 0 12.406-10.093 22.5-22.5 22.5z"/><path d="m225 345h105v30h-105z"/><path d="m225 405h105v30h-105z"/></g></svg>